<svg width="41" height="41" viewBox="0 0 41 41" fill="none" xmlns="http://www.w3.org/2000/svg">
<g clip-path="url(#clip0_166_4718)">
<path d="M20.5 41C31.8218 41 41 31.8218 41 20.5C41 9.17816 31.8218 0 20.5 0C9.17816 0 0 9.17816 0 20.5C0 31.8218 9.17816 41 20.5 41Z" fill="#F3BA2F"/>
<path d="M15.5236 18.4551L20.5 13.4788L25.4789 18.4577L28.3746 15.5621L20.5 7.6875L12.628 15.5595L15.5236 18.4551ZM7.6875 20.5L10.5831 17.6044L13.4788 20.5L10.5831 23.3956L7.6875 20.5ZM15.5236 22.5449L20.5 27.5212L25.4789 22.5423L28.3746 25.4367L20.5 33.3125L12.628 25.4405L12.6242 25.4367L15.5236 22.5449ZM27.5212 20.5L30.4169 17.6044L33.3125 20.5L30.4169 23.3956L27.5212 20.5ZM23.4366 20.4974H23.4392V20.5L20.5 23.4392L17.5647 20.5051L17.5595 20.5L17.5647 20.4962L18.0784 19.9811L18.3283 19.7312L20.5 17.5608L23.4379 20.4987L23.4366 20.4974Z" fill="white"/>
</g>
<defs>
<clipPath id="clip0_166_4718">
<rect width="41" height="41" fill="white"/>
</clipPath>
</defs>
</svg>
