<svg width="74" height="71" viewBox="0 0 74 71" fill="none" xmlns="http://www.w3.org/2000/svg">
<path d="M37 67.913C57.4345 67.913 74 52.7102 74 33.9565C74 15.2029 57.4345 0 37 0C16.5655 0 0 15.2029 0 33.9565C0 52.7102 16.5655 67.913 37 67.913Z" fill="url(#paint0_linear_72_1636)"/>
<path fill-rule="evenodd" clip-rule="evenodd" d="M41.4447 36.8916V36.8874C41.1903 36.9044 39.8792 36.9765 36.9538 36.9765C34.6182 36.9765 32.974 36.9128 32.3959 36.8874V36.8937C23.4049 36.5308 16.694 35.0941 16.694 33.375C16.694 31.6581 23.4049 30.2213 32.3959 29.852V35.4633C32.9833 35.5015 34.6668 35.5928 36.9932 35.5928C39.7843 35.5928 41.1834 35.4867 41.4447 35.4655V29.8563C50.4172 30.2234 57.1119 31.6602 57.1119 33.375C57.1119 35.0941 50.4172 36.5266 41.4447 36.8916ZM41.4447 29.2726V24.2513H53.9646V16.5941H19.876V24.2513H32.3959V29.2705C22.2209 29.6992 14.5688 31.5498 14.5688 33.7655C14.5688 35.9812 22.2209 37.8297 32.3959 38.2605V54.3516H41.4447V38.2562C51.6035 37.8275 59.2371 35.979 59.2371 33.7655C59.2371 31.552 51.6035 29.7035 41.4447 29.2726Z" fill="#151313"/>
<defs>
<linearGradient id="paint0_linear_72_1636" x1="37" y1="0" x2="37" y2="67.913" gradientUnits="userSpaceOnUse">
<stop stop-color="#9E12E0"/>
<stop offset="0.239583" stop-color="#05F858" stop-opacity="0.47"/>
<stop offset="1" stop-color="#3411C2" stop-opacity="0"/>
<stop offset="1" stop-color="#460AF2" stop-opacity="0"/>
</linearGradient>
</defs>
</svg>
