<svg width="49" height="49" viewBox="0 0 49 49" fill="none" xmlns="http://www.w3.org/2000/svg">
<g clip-path="url(#clip0_163_4700)">
<path d="M28.1732 44.6303C39.419 42.4734 46.7871 31.6083 44.6302 20.3625C42.4734 9.11662 31.6083 1.74854 20.3624 3.90542C9.11657 6.0623 1.74849 16.9274 3.90537 28.1732C6.06225 39.4191 16.9273 46.7872 28.1732 44.6303Z" fill="#F76A1A"/>
<path d="M32.9335 19.9934C32.8215 17.2493 30.514 16.2048 27.5536 15.7803L27.7614 11.9932L25.4573 11.8677L25.2541 15.555C24.6484 15.5208 24.0295 15.4996 23.4119 15.4782L23.6171 11.7668L21.3127 11.6401L21.1046 15.4259C20.6051 15.4083 20.1137 15.3917 19.6362 15.3645L19.6365 15.3526L16.4573 15.1772L16.3224 17.6388C16.3224 17.6388 18.027 17.6998 17.9971 17.7293C18.9306 17.7812 19.204 18.3397 19.2671 18.8131L19.0309 23.1269C19.095 23.1304 19.1783 23.1382 19.2739 23.1555L19.0301 23.1429L18.6982 29.1864C18.6405 29.4772 18.4422 29.9361 17.789 29.9017C17.818 29.9291 16.1142 29.8099 16.1142 29.8099L15.505 32.5367L18.5054 32.7014C19.063 32.733 19.6117 32.773 20.1497 32.8057L19.9408 36.6353L22.2436 36.761L22.4514 32.9738C23.0831 33.0202 23.6948 33.0586 24.2923 33.0918L24.0841 36.8632L26.3882 36.9886L26.5985 33.1667C30.4865 33.1573 33.2518 32.33 33.7885 28.7094C34.2217 25.7948 32.9151 24.4105 30.7443 23.7621C32.1189 23.1554 33.0193 22.0023 32.9335 19.9934ZM29.2583 28.0055C29.104 30.8679 24.22 30.2728 22.6574 30.1885L22.9377 25.1142C24.5008 25.201 29.4235 25.0208 29.2583 28.0055ZM28.5799 20.7875C28.4368 23.3918 24.3663 22.8623 23.0661 22.791L23.3185 18.1905C24.6186 18.2617 28.7292 18.0711 28.5799 20.7875Z" fill="white"/>
</g>
<defs>
<clipPath id="clip0_163_4700">
<rect width="41.4671" height="41.4671" fill="white" transform="translate(0 7.81079) rotate(-10.8571)"/>
</clipPath>
</defs>
</svg>
