<svg width="38" height="38" viewBox="0 0 38 38" fill="none" xmlns="http://www.w3.org/2000/svg">
<rect width="38" height="38" rx="19" fill="white"/>
<path fill-rule="evenodd" clip-rule="evenodd" d="M5.81902 16.0551H28.5953C28.8803 16.0551 29.1415 16.1738 29.3553 16.3876L32.9653 20.0926C33.6303 20.7813 33.1553 21.9451 32.2053 21.9451H9.42902C9.14402 21.9451 8.88277 21.8263 8.66902 21.6126L5.05902 17.9076C4.39402 17.2188 4.86902 16.0551 5.81902 16.0551ZM5.05902 11.1388L8.66902 7.43382C8.85902 7.22007 9.14402 7.10132 9.42902 7.10132H32.1815C33.1315 7.10132 33.6065 8.26507 32.9415 8.95382L29.3553 12.6588C29.1653 12.8726 28.8803 12.9913 28.5953 12.9913H5.81902C4.86902 12.9913 4.39402 11.8276 5.05902 11.1388ZM32.9415 26.8376L29.3315 30.5426C29.1178 30.7563 28.8565 30.8751 28.5715 30.8751H5.81902C4.86902 30.8751 4.39402 29.7113 5.05902 29.0226L8.66902 25.3176C8.85902 25.1038 9.14402 24.9851 9.42902 24.9851H32.1815C33.1315 24.9851 33.6065 26.1488 32.9415 26.8376Z" fill="url(#paint0_linear_163_4714)"/>
<defs>
<linearGradient id="paint0_linear_163_4714" x1="19.0121" y1="7.10132" x2="19.0121" y2="30.8751" gradientUnits="userSpaceOnUse">
<stop stop-color="#0794FA"/>
<stop offset="1" stop-color="#AF18E4"/>
</linearGradient>
</defs>
</svg>
