<svg width="102" height="82" viewBox="0 0 102 82" fill="none" xmlns="http://www.w3.org/2000/svg">
<path d="M62.8942 20.5954C62.8248 19.9578 62.442 19.2933 61.8298 18.7479C61.2177 18.2025 60.4263 17.8209 59.6298 17.687L35.5994 13.6505C35.2001 13.578 34.8102 13.5695 34.4526 13.6256C34.095 13.6817 33.7768 13.8012 33.5167 13.9772C33.2565 14.1532 33.0595 14.3821 32.9373 14.6506C32.815 14.9191 32.7699 15.2218 32.8046 15.5411C32.8392 15.8603 32.953 16.1897 33.1392 16.51C33.3254 16.8303 33.5803 17.1352 33.8891 17.4067C34.1978 17.6783 34.5543 17.9111 34.9376 18.0917C35.3208 18.2722 35.7233 18.3968 36.1215 18.4583L52.9007 21.2768L27.218 39.0658C26.7037 39.422 26.4536 39.9804 26.5228 40.618C26.5921 41.2557 26.975 41.9204 27.5872 42.4659C28.1995 43.0114 28.991 43.393 29.7876 43.5268C30.5843 43.6606 31.3208 43.5357 31.8351 43.1794L57.5179 25.3904L58.9763 38.8208C59.0584 39.4534 59.4461 40.1083 60.0558 40.6446C60.6655 41.1808 61.4485 41.5554 62.2361 41.6877C63.0237 41.82 63.7529 41.6994 64.2666 41.3519C64.7804 41.0044 65.0376 40.4577 64.9828 39.8297L62.8942 20.5954Z" fill="url(#paint0_linear_102_1688)"/>
<defs>
<linearGradient id="paint0_linear_102_1688" x1="61.8014" y1="18.7226" x2="34.8679" y2="48.9526" gradientUnits="userSpaceOnUse">
<stop stop-color="#14F446"/>
<stop offset="1" stop-color="#142BF4" stop-opacity="0"/>
</linearGradient>
</defs>
</svg>
