<svg width="92" height="94" viewBox="0 0 92 94" fill="none" xmlns="http://www.w3.org/2000/svg">
<path d="M69.9347 37.6142C69.8827 36.8848 69.548 36.1285 69.0043 35.5118C68.4605 34.8951 67.7521 34.4683 67.0349 34.3255L45.3969 30.0178C45.0373 29.94 44.6853 29.9354 44.3614 30.0044C44.0374 30.0733 43.748 30.2145 43.5101 30.4195C43.2722 30.6245 43.0904 30.8894 42.9755 31.1986C42.8606 31.5078 42.8147 31.8551 42.8407 32.2204C42.8667 32.5857 42.9639 32.9615 43.1267 33.326C43.2895 33.6905 43.5147 34.0364 43.789 34.3434C44.0634 34.6504 44.3814 34.9125 44.7246 35.1142C45.0678 35.316 45.4293 35.4535 45.7879 35.5186L60.8967 38.5264L37.4006 59.2436C36.9301 59.6585 36.6949 60.3014 36.7467 61.031C36.7986 61.7605 37.1333 62.517 37.6772 63.1338C38.2211 63.7507 38.9296 64.1774 39.647 64.3202C40.3643 64.463 41.0316 64.3102 41.5022 63.8953L64.9982 43.1781L66.0906 58.5446C66.1542 59.2682 66.4934 60.0134 67.0351 60.6197C67.5769 61.226 68.2778 61.6448 68.987 61.786C69.6962 61.9272 70.3569 61.7794 70.8268 61.3745C71.2966 60.9696 71.5381 60.34 71.4992 59.6213L69.9347 37.6142Z" fill="url(#paint0_linear_102_1682)"/>
<defs>
<linearGradient id="paint0_linear_102_1682" x1="68.979" y1="35.4832" x2="37.652" y2="63.1052" gradientUnits="userSpaceOnUse">
<stop stop-color="#14F42B"/>
<stop offset="1" stop-color="#142BF4" stop-opacity="0"/>
</linearGradient>
</defs>
</svg>
