<svg width="206" height="39" viewBox="0 0 206 39" fill="none" xmlns="http://www.w3.org/2000/svg">
<path d="M136.429 3.22754C126.103 3.22754 117.74 10.449 117.74 19.365C117.737 22.7525 118.97 26.0546 121.264 28.8029C123.558 31.5512 126.795 33.6061 130.517 34.6762C131.452 34.8166 131.803 34.3324 131.803 33.908C131.803 33.5256 131.779 32.2555 131.779 30.9032C127.084 31.6504 125.869 29.9156 125.496 29.0071C125.284 28.5423 124.374 27.1109 123.58 26.7269C122.926 26.4251 121.991 25.6779 123.556 25.6586C125.028 25.6376 126.079 26.8285 126.43 27.3127C128.112 29.7526 130.798 29.0668 131.872 28.644C132.037 27.5951 132.526 26.8899 133.065 26.4864C128.906 26.083 124.561 24.6903 124.561 18.5178C124.561 16.762 125.284 15.3112 126.477 14.18C126.29 13.7766 125.636 12.1225 126.664 9.90359C126.664 9.90359 128.228 9.48079 131.803 11.5593C133.325 11.1947 134.896 11.0112 136.475 11.0138C138.064 11.0138 139.652 11.1946 141.148 11.5577C144.723 9.45981 146.287 9.90521 146.287 9.90521C147.315 12.1241 146.661 13.7782 146.474 14.1816C147.664 15.3112 148.39 16.7426 148.39 18.5178C148.39 24.7113 144.022 26.083 139.862 26.4864C140.54 26.9899 141.125 27.9582 141.125 29.4718C141.125 31.6294 141.101 33.3642 141.101 33.9096C141.101 34.3324 141.452 34.8359 142.387 34.6745C146.096 33.5927 149.319 31.5338 151.603 28.7875C153.886 26.0412 155.115 22.7457 155.116 19.365C155.116 10.449 146.752 3.22754 136.427 3.22754H136.429Z" fill="url(#paint0_linear_56_1587)"/>
<path d="M37.6974 9.29411C37.7976 9.17471 37.649 9.018 37.49 9.07173C36.3504 9.45338 35.1601 9.71058 33.9466 9.83736C35.2946 9.1421 36.3396 8.08248 36.9196 6.82259C36.9783 6.69423 36.8159 6.57931 36.6776 6.64648C35.421 7.24495 34.0676 7.67627 32.659 7.92552C32.63 7.93055 32.6 7.92908 32.5718 7.92124C32.5437 7.9134 32.5183 7.89946 32.4982 7.88074C31.4381 6.91493 30.0423 6.27383 28.5223 6.05458C27.0023 5.83534 25.4409 6.0499 24.0749 6.66576C22.7088 7.28161 21.6124 8.26519 20.9519 9.46744C20.2914 10.6697 20.1028 12.0251 20.4146 13.3282C20.4202 13.3509 20.4197 13.3744 20.4131 13.3969C20.4065 13.4194 20.3941 13.4403 20.3768 13.458C20.3594 13.4757 20.3376 13.4898 20.313 13.4991C20.2885 13.5084 20.2617 13.5128 20.2349 13.5118C17.4995 13.3651 14.8277 12.7374 12.3834 11.6672C9.93904 10.597 7.77368 9.10689 6.02015 7.28823C6.00264 7.26931 5.97997 7.25445 5.95416 7.24496C5.92835 7.23548 5.90023 7.23167 5.8723 7.23389C5.84437 7.23611 5.81751 7.24428 5.79415 7.25768C5.77078 7.27107 5.75163 7.28926 5.73841 7.31062C5.19268 8.20454 4.90789 9.19996 4.90876 10.2105C4.90655 11.217 5.1926 12.2083 5.74145 13.0963C6.29029 13.9842 7.0849 14.7412 8.05453 15.2998C7.02727 15.2757 6.01876 15.0566 5.10062 14.658C4.98308 14.6058 4.84135 14.6789 4.84653 14.7923C4.91552 16.1372 5.48057 17.4278 6.45917 18.4757C7.49894 19.5631 8.94171 20.307 10.5435 20.5816C9.92688 20.7436 9.2867 20.8291 8.6422 20.8353C8.29178 20.8317 7.94196 20.8092 7.59476 20.7682C7.46513 20.7532 7.35969 20.8577 7.40463 20.9622C7.8997 22.1194 8.78734 23.1207 9.95165 23.8356C11.116 24.5505 12.5029 24.9456 13.9312 24.9694C11.1732 26.8425 7.70998 27.7681 4.20874 27.5678C4.02552 27.5574 3.94083 27.7678 4.09812 27.8484C7.19414 29.4348 10.7287 30.2701 14.3288 30.2662C16.9899 30.2901 19.6299 29.8558 22.0945 28.9889C24.5591 28.122 26.799 26.8397 28.6833 25.217C30.5676 23.5942 32.0585 21.6636 33.069 19.5378C34.0796 17.412 34.5895 15.1336 34.5689 12.8357V12.1193C34.5689 12.0962 34.5751 12.0733 34.5871 12.0526C34.5991 12.0319 34.6166 12.0138 34.638 11.9999C35.8098 11.2362 36.8412 10.3239 37.6974 9.29411Z" fill="url(#paint1_linear_56_1587)"/>
<g clip-path="url(#clip0_56_1587)">
<path d="M205.983 5.90236C206.018 5.69052 205.997 5.47316 205.923 5.27178C205.848 5.0704 205.722 4.89198 205.558 4.75418C205.393 4.61639 205.195 4.52398 204.984 4.48612C204.772 4.44826 204.555 4.46624 204.352 4.5383L169.819 16.8716C169.591 16.9528 169.393 17.0991 169.247 17.2922C169.102 17.4854 169.017 17.717 169.002 17.9582C168.987 18.1994 169.044 18.4397 169.165 18.6491C169.285 18.8585 169.465 19.0278 169.681 19.136L179.547 24.0694C179.742 24.1667 179.959 24.2109 180.176 24.1974C180.393 24.184 180.602 24.1134 180.783 23.9929L188.973 18.5317L184.071 24.6638C183.965 24.7973 183.887 24.9515 183.843 25.1166C183.799 25.2817 183.79 25.4541 183.816 25.6229C183.842 25.7918 183.903 25.9533 183.995 26.0973C184.087 26.2414 184.208 26.3647 184.35 26.4596L199.15 36.3262C199.321 36.4402 199.519 36.5094 199.724 36.5277C199.929 36.5459 200.135 36.5126 200.324 36.4307C200.513 36.3488 200.678 36.2209 200.805 36.0588C200.931 35.8966 201.016 35.7054 201.049 35.5024L205.983 5.90236Z" fill="url(#paint2_linear_56_1587)"/>
</g>
<path d="M96.7767 7.16076C94.3982 6.15352 91.8228 5.42246 89.1402 5.00007C89.1167 4.99939 89.0933 5.0034 89.0717 5.01182C89.0501 5.02024 89.0307 5.03287 89.015 5.04881C88.6931 5.58492 88.3176 6.28349 88.0672 6.8196C85.2218 6.4297 82.3282 6.4297 79.4828 6.8196C79.2325 6.26724 78.8569 5.58492 78.5171 5.04881C78.4992 5.01632 78.4456 5.00007 78.3919 5.00007C75.7093 5.42246 73.1519 6.15352 70.7554 7.16076C70.7375 7.16076 70.7196 7.177 70.7017 7.19325C65.8373 13.8053 64.496 20.2386 65.1577 26.6069C65.1577 26.6394 65.1756 26.6719 65.2113 26.6881C68.4305 28.8326 71.5244 30.1322 74.5826 30.9933C74.6362 31.0095 74.6899 30.9933 74.7078 30.9608C75.4231 30.0673 76.067 29.125 76.6214 28.134C76.6571 28.069 76.6214 28.0041 76.5498 27.9878C75.5304 27.6304 74.5647 27.208 73.6168 26.7206C73.5453 26.6881 73.5453 26.5907 73.599 26.5419C73.7957 26.412 73.9924 26.2658 74.1891 26.1358C74.2249 26.1033 74.2786 26.1033 74.3143 26.1195C80.4665 28.6701 87.1015 28.6701 93.182 26.1195C93.2178 26.1033 93.2715 26.1033 93.3072 26.1358C93.504 26.282 93.7007 26.412 93.8974 26.5582C93.9689 26.6069 93.9689 26.7044 93.8795 26.7369C92.9495 27.2405 91.9659 27.6466 90.9465 28.0041C90.875 28.0203 90.8571 28.1015 90.875 28.1503C91.4473 29.1413 92.0911 30.0835 92.7886 30.977C92.8422 30.9933 92.8959 31.0095 92.9495 30.9933C96.0256 30.1322 99.1196 28.8326 102.339 26.6881C102.374 26.6719 102.392 26.6394 102.392 26.6069C103.179 19.2476 101.087 12.863 96.8483 7.19325C96.8304 7.177 96.8125 7.16076 96.7767 7.16076ZM77.5513 22.7242C75.7093 22.7242 74.1713 21.1808 74.1713 19.2801C74.1713 17.3793 75.6735 15.836 77.5513 15.836C79.4471 15.836 80.9493 17.3956 80.9314 19.2801C80.9314 21.1808 79.4292 22.7242 77.5513 22.7242ZM90.0166 22.7242C88.1745 22.7242 86.6365 21.1808 86.6365 19.2801C86.6365 17.3793 88.1387 15.836 90.0166 15.836C91.9123 15.836 93.4145 17.3956 93.3966 19.2801C93.3966 21.1808 91.9123 22.7242 90.0166 22.7242Z" fill="url(#paint3_linear_56_1587)"/>
<defs>
<linearGradient id="paint0_linear_56_1587" x1="136.428" y1="3.22754" x2="136.428" y2="34.7054" gradientUnits="userSpaceOnUse">
<stop stop-color="#E50BF8"/>
<stop offset="1" stop-color="#5A13F0" stop-opacity="0.87"/>
</linearGradient>
<linearGradient id="paint1_linear_56_1587" x1="20.8728" y1="5.97095" x2="20.8728" y2="30.2671" gradientUnits="userSpaceOnUse">
<stop stop-color="#E50BF8"/>
<stop offset="1" stop-color="#5A13F0" stop-opacity="0.87"/>
</linearGradient>
<linearGradient id="paint2_linear_56_1587" x1="187.5" y1="4.4668" x2="187.5" y2="36.5325" gradientUnits="userSpaceOnUse">
<stop stop-color="#D51AF3"/>
<stop offset="1" stop-color="#5B0FFD" stop-opacity="0.67"/>
</linearGradient>
<linearGradient id="paint3_linear_56_1587" x1="83.7778" y1="5" x2="83.7778" y2="31" gradientUnits="userSpaceOnUse">
<stop stop-color="#EB16FE"/>
<stop offset="1" stop-color="#4E13F5" stop-opacity="0.79"/>
</linearGradient>
<clipPath id="clip0_56_1587">
<rect width="37" height="37" fill="white" transform="translate(169 2)"/>
</clipPath>
</defs>
</svg>
