<svg width="92" height="94" viewBox="0 0 92 94" fill="none" xmlns="http://www.w3.org/2000/svg">
<g clip-path="url(#clip0_102_1678)">
<path d="M70.1893 32.2427C70.1374 31.5133 69.8027 30.757 69.2589 30.1403C68.7151 29.5236 68.0067 29.0968 67.2895 28.9539L45.6515 24.6463C45.292 24.5685 44.94 24.5639 44.616 24.6329C44.2921 24.7018 44.0027 24.8429 43.7647 25.048C43.5268 25.253 43.3451 25.5179 43.2301 25.8271C43.1152 26.1363 43.0694 26.4836 43.0953 26.8489C43.1213 27.2142 43.2185 27.59 43.3814 27.9545C43.5442 28.319 43.7693 28.6648 44.0437 28.9719C44.318 29.2789 44.6361 29.5409 44.9793 29.7427C45.3225 29.9445 45.6839 30.082 46.0425 30.1471L61.1513 33.1549L37.6553 53.8721C37.1847 54.2869 36.9495 54.9299 37.0014 55.6595C37.0532 56.389 37.3879 57.1454 37.9318 57.7623C38.4757 58.3791 39.1843 58.8059 39.9016 58.9487C40.6189 59.0915 41.2863 58.9387 41.7568 58.5238L65.2528 37.8066L66.3452 53.1731C66.4088 53.8967 66.748 54.6419 67.2898 55.2482C67.8315 55.8544 68.5325 56.2733 69.2417 56.4144C69.9509 56.5556 70.6115 56.4079 71.0814 56.003C71.5513 55.5981 71.7927 54.9685 71.7538 54.2498L70.1893 32.2427Z" fill="url(#paint0_linear_102_1678)"/>
</g>
<defs>
<linearGradient id="paint0_linear_102_1678" x1="69.2337" y1="30.1117" x2="37.9066" y2="57.7337" gradientUnits="userSpaceOnUse">
<stop stop-color="#14F446"/>
<stop offset="1" stop-color="#142BF4" stop-opacity="0"/>
</linearGradient>
<clipPath id="clip0_102_1678">
<rect width="74.4205" height="56.7698" fill="white" transform="translate(42.5813) rotate(48.5964)"/>
</clipPath>
</defs>
</svg>
