<svg width="92" height="94" viewBox="0 0 92 94" fill="none" xmlns="http://www.w3.org/2000/svg">
<path d="M62.1894 35.2427C62.1375 34.5133 61.8028 33.757 61.259 33.1403C60.7152 32.5236 60.0068 32.0968 59.2896 31.9539L37.6516 27.6463C37.2921 27.5685 36.9401 27.5639 36.6161 27.6329C36.2922 27.7018 36.0028 27.8429 35.7649 28.048C35.5269 28.253 35.3452 28.5179 35.2302 28.8271C35.1153 29.1363 35.0695 29.4836 35.0955 29.8489C35.1214 30.2142 35.2187 30.59 35.3815 30.9545C35.5443 31.319 35.7695 31.6648 36.0438 31.9719C36.3182 32.2789 36.6362 32.5409 36.9794 32.7427C37.3226 32.9445 37.684 33.082 38.0427 33.1471L53.1514 36.1549L29.6554 56.8721C29.1848 57.2869 28.9496 57.9299 29.0015 58.6595C29.0533 59.389 29.388 60.1454 29.9319 60.7623C30.4758 61.3791 31.1844 61.8059 31.9017 61.9487C32.619 62.0915 33.2864 61.9387 33.7569 61.5238L57.253 40.8066L58.3454 56.1731C58.409 56.8967 58.7482 57.6419 59.2899 58.2482C59.8317 58.8544 60.5326 59.2733 61.2418 59.4144C61.951 59.5556 62.6117 59.4079 63.0815 59.003C63.5514 58.5981 63.7929 57.9685 63.7539 57.2498L62.1894 35.2427Z" fill="url(#paint0_linear_102_1674)"/>
<defs>
<linearGradient id="paint0_linear_102_1674" x1="61.2338" y1="33.1117" x2="29.9067" y2="60.7337" gradientUnits="userSpaceOnUse">
<stop stop-color="#08F24A"/>
<stop offset="1" stop-color="#142BF4" stop-opacity="0"/>
</linearGradient>
</defs>
</svg>
