<svg width="908" height="201" viewBox="0 0 908 201" fill="none" xmlns="http://www.w3.org/2000/svg">
<g filter="url(#filter0_d_210_173)">
<path d="M4 18.4821C4 8.27474 12.2747 0 22.4821 0H885.518C895.725 0 904 8.27474 904 18.4821V174.518C904 184.725 895.725 193 885.518 193H22.4821C12.2747 193 4 184.725 4 174.518V18.4821Z" fill="url(#paint0_linear_210_173)" fill-opacity="0.1" shape-rendering="crispEdges"/>
<path d="M4.46205 18.4821C4.46205 8.52993 12.5299 0.462054 22.4821 0.462054H885.518C895.47 0.462054 903.538 8.52992 903.538 18.4821V174.518C903.538 184.47 895.47 192.538 885.518 192.538H22.4821C12.5299 192.538 4.46205 184.47 4.46205 174.518V18.4821Z" stroke="url(#paint1_linear_210_173)" stroke-width="0.924107" shape-rendering="crispEdges"/>
</g>
<defs>
<filter id="filter0_d_210_173" x="0.303571" y="0" width="907.393" height="200.393" filterUnits="userSpaceOnUse" color-interpolation-filters="sRGB">
<feFlood flood-opacity="0" result="BackgroundImageFix"/>
<feColorMatrix in="SourceAlpha" type="matrix" values="0 0 0 0 0 0 0 0 0 0 0 0 0 0 0 0 0 0 127 0" result="hardAlpha"/>
<feOffset dy="3.69643"/>
<feGaussianBlur stdDeviation="1.84821"/>
<feComposite in2="hardAlpha" operator="out"/>
<feColorMatrix type="matrix" values="0 0 0 0 0 0 0 0 0 0 0 0 0 0 0 0 0 0 0.25 0"/>
<feBlend mode="normal" in2="BackgroundImageFix" result="effect1_dropShadow_210_173"/>
<feBlend mode="normal" in="SourceGraphic" in2="effect1_dropShadow_210_173" result="shape"/>
</filter>
<linearGradient id="paint0_linear_210_173" x1="454" y1="0" x2="454" y2="193" gradientUnits="userSpaceOnUse">
<stop stop-color="#7A12CC"/>
<stop offset="0.494792" stop-color="#10CC39" stop-opacity="0.6"/>
<stop offset="1" stop-color="#110ECC" stop-opacity="0.65"/>
</linearGradient>
<linearGradient id="paint1_linear_210_173" x1="420.4" y1="84.0464" x2="420.4" y2="277.046" gradientUnits="userSpaceOnUse">
<stop stop-color="#9E12F3"/>
<stop offset="1" stop-color="#1814E4"/>
</linearGradient>
</defs>
</svg>
