<svg width="14" height="14" viewBox="0 0 14 14" fill="none" xmlns="http://www.w3.org/2000/svg">
<path d="M0.5 7.08002H2.69C2.78221 7.07896 2.87248 7.0534 2.95156 7.00595C3.03063 6.95851 3.09567 6.89089 3.14 6.81002L4.94 3.21002C4.98436 3.12039 5.05509 3.04648 5.14268 2.99822C5.23027 2.94995 5.33053 2.92965 5.43 2.94002C5.52907 2.94672 5.62363 2.98398 5.70064 3.04666C5.77766 3.10935 5.83333 3.19437 5.86 3.29002L8.09 10.71C8.11926 10.8107 8.17942 10.8996 8.26196 10.9642C8.34451 11.0288 8.44527 11.0658 8.55 11.07C8.64814 11.0668 8.74315 11.0347 8.82318 10.9778C8.90321 10.9209 8.9647 10.8417 9 10.75L10.37 7.40002C10.4077 7.30605 10.4726 7.22544 10.5563 7.16845C10.64 7.11146 10.7387 7.08068 10.84 7.08002H13.5" stroke="#D99BFF" stroke-linecap="round" stroke-linejoin="round"/>
</svg>
