<svg width="39" height="39" viewBox="0 0 39 39" fill="none" xmlns="http://www.w3.org/2000/svg">
<rect x="0.845808" y="0.845808" width="37.3084" height="37.3084" rx="18.6542" fill="#2F2B2B"/>
<path d="M3.8999 3.90002L11.8559 12.5216C12.8298 13.5773 14.0118 14.4198 15.3274 14.996C16.643 15.5722 18.0636 15.8697 19.4999 15.8697C20.9362 15.8697 22.3569 15.5722 23.6724 14.996C24.988 14.4198 26.17 13.5773 27.1439 12.5216L35.0999 3.90002M3.8999 35.1L11.8559 26.4784C12.8298 25.4228 14.0118 24.5803 15.3274 24.004C16.643 23.4278 18.0636 23.1303 19.4999 23.1303C20.9362 23.1303 22.3569 23.4278 23.6724 24.004C24.988 24.5803 26.17 25.4228 27.1439 26.4784L35.0999 35.1" stroke="#E50BF8" stroke-width="1.69162"/>
<rect x="0.845808" y="0.845808" width="37.3084" height="37.3084" rx="18.6542" stroke="#504949" stroke-width="1.69162"/>
</svg>
