<svg width="106" height="103" viewBox="0 0 106 103" fill="none" xmlns="http://www.w3.org/2000/svg">
<g clip-path="url(#clip0_67_1608)">
<path opacity="0.5" d="M67.2647 42.5081C66.819 37.838 62.6982 36.3042 57.4926 35.9038L57.5124 29.4188L53.4783 29.4525L53.4603 35.7681C52.4007 35.7768 51.3164 35.8062 50.24 35.8372L50.2591 29.4818L46.2249 29.5155L46.2086 35.9997C45.3529 36.0274 44.4971 36.047 43.6414 36.0584L43.6397 36.0373L38.0773 36.0831L38.0694 40.2996C38.0694 40.2996 41.045 40.2204 40.9984 40.2718C42.1288 40.13 43.1558 40.8919 43.3119 41.9816L43.266 59.7504C43.2553 59.933 43.2072 60.1123 43.1246 60.2778C43.042 60.4434 42.9265 60.5919 42.7848 60.7147C42.6431 60.8375 42.4781 60.9322 42.2994 60.9932C42.1206 61.0541 41.9318 61.0802 41.7438 61.0699C41.7968 61.1176 38.8148 61.0978 38.8148 61.0978L37.9995 65.8204L43.2489 65.7745C44.2264 65.7649 45.1863 65.7742 46.1279 65.77L46.1128 72.333L50.1426 72.2968L50.1607 65.805C51.2675 65.8203 52.3367 65.8199 53.3807 65.8079L53.3618 72.2675L57.3959 72.2338L57.4144 65.6843C64.1962 65.2442 68.946 63.5301 69.5545 57.2955C69.7727 56.3831 69.7941 55.44 69.6175 54.5256C69.4409 53.6112 69.0701 52.7454 68.5284 51.9828C67.9868 51.2202 67.286 50.5773 66.4704 50.0948C65.6547 49.6123 64.7419 49.3005 63.7895 49.1792C65.0395 48.5819 66.0579 47.6044 66.6865 46.3987C67.315 45.193 67.5186 43.8265 67.2656 42.5115L67.2647 42.5081ZM61.5845 56.5866C61.5742 61.487 53.0022 61.0057 50.2656 61.0281L50.2917 52.3407C53.024 52.3158 61.6005 51.4726 61.5845 56.5866ZM59.7428 44.3399C59.729 48.7988 52.5793 48.343 50.3035 48.3605L50.3248 40.4798C52.5998 40.4589 59.7525 39.6877 59.7428 44.3399Z" fill="#120801"/>
<path d="M50.3236 40.4765L50.3032 48.3606C52.5782 48.3397 59.7287 48.7989 59.7425 44.3399C59.7522 39.6878 52.5995 40.459 50.3236 40.4765ZM50.2914 52.3408L50.2661 61.0316C53.0019 61.0058 61.5739 61.4871 61.5877 56.5858C61.6002 51.4727 53.0237 52.3158 50.2914 52.3408Z" fill="#6C0C8D"/>
<path d="M44.6787 17.3775C25.3347 22.264 13.4772 41.3587 18.1933 60.0283C22.9093 78.6978 42.4126 89.8706 61.7566 84.9842C81.1006 80.0977 92.9581 61.003 88.242 42.3334C83.5259 23.6639 64.0226 12.4911 44.6787 17.3775ZM67.2644 42.5082C67.5184 43.8236 67.3153 45.1908 66.6869 46.3972C66.0584 47.6036 65.0397 48.5817 63.7892 49.1792C64.7407 49.3009 65.6526 49.6126 66.4675 50.0949C67.2824 50.5771 67.9826 51.2193 68.524 51.9811C69.0653 52.7429 69.4362 53.6078 69.6132 54.5212C69.7903 55.4347 69.7696 56.377 69.5525 57.2888C68.9457 63.5302 64.1959 65.2443 57.4141 65.6844L57.3956 72.2338L53.3615 72.2676L53.3804 65.8079C52.3069 65.8202 51.2335 65.8192 50.1604 65.805L50.1423 72.2969L46.1125 72.3331L46.1311 65.7692C45.186 65.7742 44.2261 65.765 43.2486 65.7746L37.9992 65.8204L38.8145 61.0979C38.8145 61.0979 41.8 61.1168 41.7443 61.0734L41.7627 61.0723C41.9494 61.0801 42.1364 61.052 42.313 60.9897C42.4897 60.9275 42.6525 60.8322 42.7922 60.7094C42.9318 60.5866 43.0455 60.4386 43.1268 60.2741C43.208 60.1095 43.2552 59.9316 43.2657 59.7505L43.3116 41.9817C43.2371 41.4568 42.9536 40.9844 42.5215 40.665C42.0893 40.3456 41.5427 40.2045 40.9981 40.2718C41.0447 40.2205 38.0691 40.2997 38.0691 40.2997L38.077 36.0832L43.6394 36.0373L43.6411 36.0585C44.4769 36.0487 45.3356 36.026 46.2083 35.9998L46.2246 29.5156L50.2588 29.4818L50.2397 35.8373C51.3169 35.8097 52.4004 35.7769 53.4636 35.7673L53.478 29.4526L57.5121 29.4188L57.4923 35.9039C62.6979 36.3042 66.8187 37.838 67.2644 42.5082Z" fill="url(#paint0_linear_67_1608)"/>
</g>
<defs>
<linearGradient id="paint0_linear_67_1608" x1="44.6787" y1="17.3775" x2="61.7566" y2="84.9842" gradientUnits="userSpaceOnUse">
<stop stop-color="#BE10FC"/>
<stop offset="0.364583" stop-color="#0CF523" stop-opacity="0.38"/>
<stop offset="1" stop-color="#5208EE" stop-opacity="0"/>
</linearGradient>
<clipPath id="clip0_67_1608">
<rect width="86.6989" height="83.6763" fill="white" transform="translate(0.941406 21.2338) rotate(-14.1768)"/>
</clipPath>
</defs>
</svg>
