<svg width="37" height="33" viewBox="0 0 37 33" fill="none" xmlns="http://www.w3.org/2000/svg">
<path d="M36.9826 1.90236C37.0179 1.69052 36.9971 1.47316 36.9226 1.27178C36.848 1.0704 36.7221 0.891981 36.5574 0.754184C36.3927 0.616387 36.1948 0.523985 35.9835 0.48612C35.7721 0.448255 35.5545 0.466241 35.3522 0.538296L0.81884 12.8716C0.59121 12.9528 0.392444 13.0991 0.247231 13.2922C0.102019 13.4854 0.0167598 13.717 0.00204477 13.9582C-0.0126702 14.1994 0.0438074 14.4397 0.164462 14.6491C0.285117 14.8585 0.464631 15.0278 0.680707 15.136L10.5474 20.0694C10.7418 20.1667 10.9585 20.2109 11.1756 20.1974C11.3926 20.184 11.6022 20.1134 11.7832 19.9929L19.9725 14.5317L15.0712 20.6638C14.9646 20.7973 14.8868 20.9515 14.8429 21.1166C14.7989 21.2817 14.7898 21.4541 14.816 21.6229C14.8422 21.7918 14.9032 21.9533 14.9951 22.0973C15.087 22.2414 15.2079 22.3647 15.35 22.4596L30.15 32.3262C30.3214 32.4402 30.5185 32.5094 30.7235 32.5277C30.9285 32.5459 31.1348 32.5126 31.3236 32.4307C31.5124 32.3488 31.6777 32.2209 31.8045 32.0588C31.9312 31.8966 32.0154 31.7054 32.0493 31.5024L36.9826 1.90236Z" fill="url(#paint0_linear_210_102)"/>
<defs>
<linearGradient id="paint0_linear_210_102" x1="18.4995" y1="0.466797" x2="18.4995" y2="32.5325" gradientUnits="userSpaceOnUse">
<stop stop-color="#D51AF3"/>
<stop offset="1" stop-color="#5B0FFD" stop-opacity="0.67"/>
</linearGradient>
</defs>
</svg>
