<svg width="39" height="32" viewBox="0 0 39 32" fill="none" xmlns="http://www.w3.org/2000/svg">
<path d="M19.4288 0.227539C9.10308 0.227539 0.739749 7.44904 0.739749 16.365C0.737499 19.7525 1.9706 23.0546 4.26414 25.8029C6.55768 28.5512 9.7952 30.6061 13.5174 31.6762C14.4519 31.8166 14.8032 31.3324 14.8032 30.908C14.8032 30.5256 14.7789 29.2555 14.7789 27.9032C10.0843 28.6504 8.86947 26.9156 8.49569 26.0071C8.2845 25.5423 7.37435 24.1109 6.58007 23.7269C5.92595 23.4251 4.9915 22.6779 6.55577 22.6586C8.02847 22.6376 9.07879 23.8285 9.43014 24.3127C11.1122 26.7526 13.7978 26.0668 14.8724 25.644C15.0368 24.5951 15.5265 23.8899 16.0647 23.4864C11.9064 23.083 7.56124 21.6903 7.56124 15.5178C7.56124 13.762 8.2845 12.3112 9.47686 11.18C9.28997 10.7766 8.63586 9.12249 9.66375 6.90359C9.66375 6.90359 11.228 6.48079 14.8032 8.55929C16.3246 8.19469 17.8966 8.01118 19.4755 8.01385C21.0641 8.01385 22.6526 8.19459 24.1477 8.55768C27.7229 6.45981 29.2872 6.90521 29.2872 6.90521C30.3151 9.1241 29.661 10.7782 29.4741 11.1816C30.6646 12.3112 31.3897 13.7426 31.3897 15.5178C31.3897 21.7113 27.0221 23.083 22.8619 23.4864C23.5403 23.9899 24.1253 24.9582 24.1253 26.4718C24.1253 28.6294 24.101 30.3642 24.101 30.9096C24.101 31.3324 24.4524 31.8359 25.3868 31.6745C29.0963 30.5927 32.3195 28.5338 34.603 25.7875C36.8864 23.0412 38.115 19.7457 38.1159 16.365C38.1159 7.44904 29.7526 0.227539 19.4269 0.227539H19.4288Z" fill="url(#paint0_linear_210_97)"/>
<defs>
<linearGradient id="paint0_linear_210_97" x1="19.4278" y1="0.227539" x2="19.4278" y2="31.7054" gradientUnits="userSpaceOnUse">
<stop stop-color="#E50BF8"/>
<stop offset="1" stop-color="#5A13F0" stop-opacity="0.87"/>
</linearGradient>
</defs>
</svg>
