<svg width="20" height="16" viewBox="0 0 20 16" fill="none" xmlns="http://www.w3.org/2000/svg">
<path d="M18.4079 4.10407C18.3618 3.78632 18.1605 3.45154 17.8482 3.17333C17.536 2.89513 17.1384 2.6963 16.7428 2.62055L4.80981 0.336689C4.61138 0.296023 4.41884 0.287316 4.24344 0.311077C4.06803 0.334837 3.91327 0.39059 3.78818 0.475081C3.66309 0.559572 3.57018 0.671109 3.51487 0.803184C3.45956 0.93526 3.44295 1.08523 3.46602 1.24434C3.4891 1.40345 3.55138 1.56852 3.64925 1.72991C3.74711 1.8913 3.8786 2.04579 4.03603 2.18435C4.19346 2.32291 4.37369 2.44278 4.5662 2.53695C4.7587 2.63113 4.95964 2.69773 5.15726 2.73286L13.4895 4.32757L1.14899 12.8752C0.901849 13.0463 0.788894 13.3211 0.834975 13.6389C0.881058 13.9567 1.0824 14.2915 1.39472 14.5698C1.70703 14.848 2.10473 15.0469 2.50032 15.1226C2.89592 15.1983 3.257 15.1447 3.50414 14.9735L15.8447 6.4259L16.8153 13.1196C16.8676 13.4351 17.0712 13.7651 17.382 14.0387C17.6929 14.3124 18.0863 14.5076 18.4774 14.5825C18.8685 14.6573 19.226 14.6058 19.4731 14.4389C19.7201 14.2721 19.8368 14.0033 19.798 13.6905L18.4079 4.10407Z" fill="url(#paint0_linear_166_4747)"/>
<defs>
<linearGradient id="paint0_linear_166_4747" x1="17.8338" y1="3.16044" x2="4.89225" y2="17.6859" gradientUnits="userSpaceOnUse">
<stop stop-color="#14F446"/>
<stop offset="1" stop-color="#142BF4" stop-opacity="0"/>
</linearGradient>
</defs>
</svg>
