<svg width="38" height="26" viewBox="0 0 38 26" fill="none" xmlns="http://www.w3.org/2000/svg">
<path d="M31.7767 2.16076C29.3982 1.15352 26.8228 0.422464 24.1402 7.47275e-05C24.1167 -0.000608574 24.0933 0.00340101 24.0717 0.0118216C24.0501 0.0202423 24.0307 0.0328694 24.015 0.0488123C23.6931 0.584922 23.3176 1.28349 23.0672 1.8196C20.2218 1.4297 17.3282 1.4297 14.4828 1.8196C14.2325 1.26724 13.8569 0.584922 13.5171 0.0488123C13.4992 0.0163208 13.4456 7.47275e-05 13.3919 7.47275e-05C10.7093 0.422464 8.15186 1.15352 5.75539 2.16076C5.73751 2.16076 5.71963 2.177 5.70174 2.19325C0.837269 8.80527 -0.504038 15.2386 0.157673 21.6069C0.157673 21.6394 0.175557 21.6719 0.211326 21.6881C3.43046 23.8326 6.52441 25.1322 9.58259 25.9933C9.63624 26.0095 9.68989 25.9933 9.70778 25.9608C10.4231 25.0673 11.067 24.125 11.6214 23.134C11.6571 23.069 11.6214 23.0041 11.5498 22.9878C10.5304 22.6304 9.5647 22.208 8.61685 21.7206C8.54531 21.6881 8.54531 21.5907 8.59896 21.5419C8.79569 21.412 8.99241 21.2658 9.18914 21.1358C9.22491 21.1033 9.27856 21.1033 9.31433 21.1195C15.4665 23.6701 22.1015 23.6701 28.182 21.1195C28.2178 21.1033 28.2715 21.1033 28.3072 21.1358C28.504 21.282 28.7007 21.412 28.8974 21.5582C28.9689 21.6069 28.9689 21.7044 28.8795 21.7369C27.9495 22.2405 26.9659 22.6466 25.9465 23.0041C25.875 23.0203 25.8571 23.1015 25.875 23.1503C26.4473 24.1413 27.0911 25.0835 27.7886 25.977C27.8422 25.9933 27.8959 26.0095 27.9495 25.9933C31.0256 25.1322 34.1196 23.8326 37.3387 21.6881C37.3745 21.6719 37.3923 21.6394 37.3923 21.6069C38.1792 14.2476 36.0868 7.86302 31.8483 2.19325C31.8304 2.177 31.8125 2.16076 31.7767 2.16076ZM12.5513 17.7242C10.7093 17.7242 9.17125 16.1808 9.17125 14.2801C9.17125 12.3793 10.6735 10.836 12.5513 10.836C14.4471 10.836 15.9493 12.3956 15.9314 14.2801C15.9314 16.1808 14.4292 17.7242 12.5513 17.7242ZM25.0166 17.7242C23.1745 17.7242 21.6365 16.1808 21.6365 14.2801C21.6365 12.3793 23.1387 10.836 25.0166 10.836C26.9123 10.836 28.4145 12.3956 28.3966 14.2801C28.3966 16.1808 26.9123 17.7242 25.0166 17.7242Z" fill="url(#paint0_linear_210_103)"/>
<defs>
<linearGradient id="paint0_linear_210_103" x1="18.7778" y1="0" x2="18.7778" y2="26" gradientUnits="userSpaceOnUse">
<stop stop-color="#EB16FE"/>
<stop offset="1" stop-color="#4E13F5" stop-opacity="0.79"/>
</linearGradient>
</defs>
</svg>
