<svg width="34" height="26" viewBox="0 0 34 26" fill="none" xmlns="http://www.w3.org/2000/svg">
<path d="M33.6974 4.29411C33.7976 4.17471 33.649 4.018 33.49 4.07173C32.3504 4.45338 31.1601 4.71058 29.9466 4.83736C31.2946 4.1421 32.3396 3.08248 32.9196 1.82259C32.9783 1.69423 32.8159 1.57931 32.6776 1.64648C31.421 2.24495 30.0676 2.67627 28.659 2.92552C28.63 2.93055 28.6 2.92908 28.5718 2.92124C28.5437 2.9134 28.5183 2.89946 28.4982 2.88074C27.4381 1.91493 26.0423 1.27383 24.5223 1.05458C23.0023 0.835339 21.4409 1.0499 20.0749 1.66576C18.7088 2.28161 17.6124 3.26519 16.9519 4.46744C16.2914 5.6697 16.1028 7.02509 16.4146 8.32823C16.4202 8.35092 16.4197 8.37441 16.4131 8.3969C16.4065 8.41939 16.3941 8.44028 16.3768 8.45799C16.3594 8.4757 16.3376 8.48976 16.313 8.49909C16.2885 8.50841 16.2617 8.51276 16.2349 8.51181C13.4995 8.36512 10.8277 7.73742 8.38339 6.66722C5.93904 5.59702 3.77368 4.10689 2.02015 2.28823C2.00264 2.26931 1.97997 2.25445 1.95416 2.24496C1.92835 2.23548 1.90023 2.23167 1.8723 2.23389C1.84437 2.23611 1.81751 2.24428 1.79415 2.25768C1.77078 2.27107 1.75163 2.28926 1.73841 2.31062C1.19268 3.20454 0.907886 4.19996 0.908759 5.21048C0.906547 6.21697 1.1926 7.20831 1.74145 8.09625C2.29029 8.98419 3.0849 9.74116 4.05453 10.2998C3.02727 10.2757 2.01876 10.0566 1.10062 9.65802C0.983082 9.60578 0.841349 9.67891 0.846535 9.79234C0.915524 11.1372 1.48057 12.4278 2.45917 13.4757C3.49894 14.5631 4.94171 15.307 6.54349 15.5816C5.92688 15.7436 5.2867 15.8291 4.6422 15.8353C4.29178 15.8317 3.94196 15.8092 3.59476 15.7682C3.46513 15.7532 3.35969 15.8577 3.40463 15.9622C3.8997 17.1194 4.78734 18.1207 5.95165 18.8356C7.11597 19.5505 8.50286 19.9456 9.93124 19.9694C7.1732 21.8425 3.70998 22.7681 0.208738 22.5678C0.0255231 22.5574 -0.0591705 22.7678 0.098118 22.8484C3.19414 24.4348 6.72869 25.2701 10.3288 25.2662C12.9899 25.2901 15.6299 24.8558 18.0945 23.9889C20.5591 23.122 22.799 21.8397 24.6833 20.217C26.5676 18.5942 28.0585 16.6636 29.069 14.5378C30.0796 12.412 30.5895 10.1336 30.5689 7.83572V7.11934C30.5689 7.09617 30.5751 7.07332 30.5871 7.05259C30.5991 7.03187 30.6166 7.01384 30.638 6.99994C31.8098 6.23618 32.8412 5.32394 33.6974 4.29411Z" fill="url(#paint0_linear_210_100)"/>
<defs>
<linearGradient id="paint0_linear_210_100" x1="16.8728" y1="0.970947" x2="16.8728" y2="25.2671" gradientUnits="userSpaceOnUse">
<stop stop-color="#E50BF8"/>
<stop offset="1" stop-color="#5A13F0" stop-opacity="0.87"/>
</linearGradient>
</defs>
</svg>
